<?xml version="1.0" encoding="utf-8"?>
<!-- Generator: Adobe Illustrator 15.0.0, SVG Export Plug-In . SVG Version: 6.00 Build 0)  -->
<!DOCTYPE svg PUBLIC "-//W3C//DTD SVG 1.1//EN" "http://www.w3.org/Graphics/SVG/1.1/DTD/svg11.dtd">
<svg version="1.1" id="Слой_1" xmlns="http://www.w3.org/2000/svg" xmlns:xlink="http://www.w3.org/1999/xlink" x="0px" y="0px"
	 width="156.959px" height="54.29px" viewBox="0 0 156.959 54.29" enable-background="new 0 0 156.959 54.29" xml:space="preserve">
<g>
	<path fill="#ED674D" d="M17.5,14.628c5.346,9.488,10,19.319,10,22.569c0,5.29-4.486,9.593-10,9.593s-10-4.303-10-9.593
		C7.5,33.947,12.154,24.116,17.5,14.628 M17.5,4.77c0,0-15,24.369-15,32.427c0,8.061,6.716,14.593,15,14.593s15-6.532,15-14.593
		C32.5,29.139,17.5,4.77,17.5,4.77L17.5,4.77z"/>
</g>
<path fill="#FFFFFF" d="M44.512,23.945h3.444v-8.036H54.9v-2.8h-6.944V7.901h7.476V5.073h-10.92V23.945z"/>
<path fill="#FFFFFF" d="M61.563,5.073v18.872h3.444V5.073H61.563z"/>
<path fill="#FFFFFF" d="M75.367,23.945h3.444V7.957h5.432V5.073H69.991v2.884h5.376V23.945z"/>
<path fill="#FFFFFF" d="M92.419,23.945v-6.748c0-3.108-0.056-5.6-0.196-8.036l0.112-0.028c0.924,2.128,2.156,4.424,3.36,6.496
	l4.928,8.316h3.584V5.073h-3.192v6.58c0,2.884,0.056,5.32,0.308,7.84h-0.056c-0.868-2.044-1.988-4.228-3.22-6.328l-4.872-8.092
	h-3.948v18.872H92.419z"/>
<path fill="#FFFFFF" d="M121.539,12.773h-7.112V7.901h7.532V5.073h-10.976v18.872h11.396v-2.828h-7.952v-5.544h7.112V12.773z"/>
<path fill="#FFFFFF" d="M127.363,23.049c1.036,0.644,3.108,1.204,5.124,1.204c4.844,0,7.14-2.632,7.14-5.684
	c0-2.716-1.568-4.368-4.844-5.6c-2.52-0.98-3.612-1.652-3.612-3.108c0-1.12,0.924-2.268,3.108-2.268c1.764,0,3.08,0.532,3.78,0.896
	l0.812-2.772c-0.98-0.504-2.464-0.952-4.508-0.952c-4.116,0-6.692,2.324-6.692,5.432c0,2.716,1.988,4.368,5.124,5.488
	c2.38,0.868,3.332,1.708,3.332,3.136c0,1.54-1.232,2.576-3.416,2.576c-1.764,0-3.472-0.56-4.564-1.204L127.363,23.049z"/>
<path fill="#FFFFFF" d="M144.695,23.049c1.036,0.644,3.108,1.204,5.124,1.204c4.844,0,7.14-2.632,7.14-5.684
	c0-2.716-1.568-4.368-4.844-5.6c-2.52-0.98-3.612-1.652-3.612-3.108c0-1.12,0.924-2.268,3.108-2.268c1.764,0,3.08,0.532,3.78,0.896
	l0.812-2.772c-0.98-0.504-2.464-0.952-4.508-0.952c-4.116,0-6.692,2.324-6.692,5.432c0,2.716,1.988,4.368,5.124,5.488
	c2.38,0.868,3.332,1.708,3.332,3.136c0,1.54-1.232,2.576-3.416,2.576c-1.764,0-3.472-0.56-4.564-1.204L144.695,23.049z"/>
<path fill-rule="evenodd" clip-rule="evenodd" fill="#B5C625" d="M45.5,35.779h38v3h-38V35.779z"/>
</svg>
