<svg style="display: none">

  <symbol id="balloon" viewBox="0 0 46 46">
    <path fill="#28ABE3" d="M12.272,13.833c-2.008,0-3.636,1.642-3.636,3.667s1.628,3.667,3.636,3.667s3.636-1.642,3.636-3.667
    	S14.281,13.833,12.272,13.833z M12.272,19.333c-1.004,0-1.818-0.821-1.818-1.833s0.814-1.833,1.818-1.833
    	c1.004,0,1.818,0.821,1.818,1.833S13.277,19.333,12.272,19.333z M23.182,13.833c-2.008,0-3.636,1.642-3.636,3.667
    	s1.628,3.667,3.636,3.667s3.636-1.642,3.636-3.667S25.19,13.833,23.182,13.833z M23.182,19.333c-1.004,0-1.818-0.821-1.818-1.833
    	s0.814-1.833,1.818-1.833c1.004,0,1.818,0.821,1.818,1.833S24.186,19.333,23.182,19.333z M34.091,13.833
    	c-2.008,0-3.637,1.642-3.637,3.667s1.628,3.667,3.637,3.667c2.008,0,3.636-1.642,3.636-3.667S36.099,13.833,34.091,13.833z
    	 M34.091,19.333c-1.004,0-1.818-0.821-1.818-1.833s0.814-1.833,1.818-1.833c1.004,0,1.818,0.821,1.818,1.833
    	S35.095,19.333,34.091,19.333z M39.545,1H6.818C3.806,1,1.364,3.462,1.364,6.5v22c0,3.038,2.442,5.5,5.454,5.5h10.909l-3.636,11
    	l16.363-11h9.091C42.558,34,45,31.538,45,28.5v-22C45,3.462,42.558,1,39.545,1z M43.182,28.5c0,2.025-1.628,3.667-3.637,3.667h-10
    	l-12.728,9.167l3.636-9.167H6.818c-2.008,0-3.636-1.642-3.636-3.667v-22c0-2.025,1.628-3.667,3.636-3.667h32.727
    	c2.008,0,3.637,1.642,3.637,3.667V28.5z"/>
  </symbol>

  <symbol id="case" viewBox="0 0 46 43">
    <path fill="#28ABE3" d="M41,6.5H4.636C2.628,6.5,1,8.142,1,10.167v27.5c0,2.025,1.628,3.667,3.636,3.667H41
    	c2.008,0,3.637-1.642,3.637-3.667v-27.5C44.637,8.142,43.008,6.5,41,6.5z M42.818,37.667c0,1.013-0.814,1.833-1.818,1.833H4.636
    	c-1.004,0-1.818-0.821-1.818-1.833v-7.333h40V37.667z M42.818,28.5h-40v-9.167h40V28.5z M42.818,17.5h-40v-7.333
    	c0-1.013,0.814-1.833,1.818-1.833H41c1.004,0,1.818,0.821,1.818,1.833V17.5z M19.182,2.833h7.272c1.004,0,1.818,0.821,1.818,1.833
    	h1.818C30.091,2.642,28.463,1,26.455,1h-7.272c-2.008,0-3.637,1.642-3.637,3.667h1.818C17.364,3.654,18.178,2.833,19.182,2.833z"/>
  </symbol>

  <symbol id="clock" viewBox="0 0 45 46">
    <path fill="#28ABE3" d="M20.273,27.886c2.174,1.265,4.954,0.515,6.209-1.678l3.791-15.788L18.609,21.625
    	C17.354,23.817,18.099,26.62,20.273,27.886z M20.078,22.747l6.973-6.698l-2.266,9.439c-0.8,1.162-2.368,1.53-3.603,0.811
    	C19.947,25.579,19.48,24.026,20.078,22.747z M22.545,1C10.496,1,0.728,10.85,0.728,23s9.769,22,21.818,22
    	c12.05,0,21.818-9.85,21.818-22S34.595,1,22.545,1z M22.545,43.167c-10.741,0-19.501-8.538-19.977-19.25h3.614v-1.833H2.589
    	c0.219-4.875,2.142-9.295,5.198-12.668l2.545,2.566l1.285-1.297L9.074,8.12c3.347-3.082,7.725-5.045,12.562-5.263V6.5h1.818V2.857
    	c4.837,0.218,9.215,2.181,12.562,5.263l-2.543,2.564l1.286,1.297l2.544-2.566c3.057,3.373,4.979,7.792,5.198,12.668h-3.593v1.833
    	h3.613C42.047,34.628,33.286,43.167,22.545,43.167z"/>
  </symbol>

  <symbol id="cloud" viewBox="0 0 49 35">
    <path fill="#28ABE3" d="M44.212,21.486c0.271-1.01,0.43-2.066,0.43-3.161c0-6.834-5.636-12.375-12.589-12.375
    	c-1.787,0-3.484,0.371-5.024,1.031C25.484,3.464,21.931,1,17.786,1C12.224,1,7.714,5.433,7.714,10.9c0,0.368,0.07,0.717,0.11,1.075
    	C3.799,13.807,1,17.803,1,22.45C1,28.829,6.261,34,12.75,34h28.536C44.994,34,48,31.045,48,27.4
    	C48,24.792,46.448,22.558,44.212,21.486z M41.286,32.35H12.75c-5.553,0-10.071-4.44-10.071-9.899c0-3.836,2.296-7.36,5.851-8.978
    	l1.094-0.498l-0.131-1.179c-0.014-0.124-0.03-0.245-0.047-0.367c-0.024-0.174-0.053-0.348-0.053-0.528
    	c0-4.549,3.765-8.25,8.393-8.25c3.349,0,6.372,1.957,7.703,4.986l0.668,1.52L27.7,8.494C29.084,7.9,30.549,7.6,32.054,7.6
    	c6.016,0,10.911,4.811,10.911,10.725c0,0.892-0.126,1.814-0.375,2.74l-0.352,1.31l1.238,0.594c1.755,0.843,2.845,2.54,2.845,4.432
    	C46.321,30.129,44.063,32.35,41.286,32.35z"/>
  </symbol>

</svg>
